<svg xmlns="http://www.w3.org/2000/svg" width="55" height="56" fill="none"><path fill="#fff" d="M23.993 29.872v-1.286c0-.361.28-.643.642-.643h14.143c.362 0 .643.282.643.643v1.286a.635.635 0 0 1-.643.643H24.635a.635.635 0 0 1-.642-.643ZM24.635 33.086h14.143c.362 0 .643.282.643.643v1.286a.635.635 0 0 1-.643.643H24.635a.635.635 0 0 1-.642-.643v-1.286c0-.361.28-.643.642-.643ZM24.635 38.23h14.143c.362 0 .643.28.643.642v1.286a.635.635 0 0 1-.643.643H24.635a.635.635 0 0 1-.642-.643v-1.286c0-.362.28-.643.642-.643Z"/><path fill="#fff" fill-rule="evenodd" d="M16.278 21.814a7.415 7.415 0 1 1 7.174-9.3h12.755c1.065 0 2.551.624 3.294 1.367l6.268 6.268c.744.743 1.366 2.23 1.366 3.294v23.143a1.93 1.93 0 0 1-1.928 1.929h-27a1.93 1.93 0 0 1-1.929-1.929V21.814Zm2.572-.458a7.421 7.421 0 0 0 4.812-6.27h10.616v8.357c0 1.065.864 1.929 1.929 1.929h8.357v20.571H18.85V21.356Zm18.823-5.667c-.14-.14-.482-.322-.823-.442v7.554h7.553c-.12-.342-.301-.683-.442-.824l-6.288-6.288Zm-20.395-.29h4v-2h-4v-4h-2v4h-4v2h4v4h2v-4Z" clip-rule="evenodd"/></svg>