<svg xmlns="http://www.w3.org/2000/svg" width="18" height="21" fill="none"><path fill="#272733" d="M16.813 4.608 13.33 1.126C12.918.713 12.09.367 11.5.367h-10C.908.367.428.847.428 1.44v17.857c0 .591.48 1.071 1.071 1.071h15c.592 0 1.072-.48 1.072-1.071V6.439c0-.592-.346-1.418-.76-1.83Zm-4.956-2.723c.19.067.38.167.458.246l3.493 3.493c.078.078.179.268.246.457h-4.197V1.885Zm4.286 17.054H1.857V1.796h8.572v4.643c0 .591.48 1.071 1.071 1.071h4.643V18.94ZM4.714 9.296v.714c0 .2.157.357.358.357h7.857c.2 0 .357-.156.357-.357v-.714c0-.201-.156-.357-.357-.357H5.072c-.201 0-.358.156-.358.357Zm8.215 2.5H5.072c-.201 0-.358.156-.358.357v.714c0 .201.157.357.358.357h7.857c.2 0 .357-.156.357-.357v-.714c0-.201-.156-.357-.357-.357Zm0 2.857H5.072c-.201 0-.358.156-.358.357v.714c0 .201.157.357.358.357h7.857c.2 0 .357-.156.357-.357v-.714c0-.2-.156-.357-.357-.357Z"/></svg>