<svg xmlns="http://www.w3.org/2000/svg" width="15" height="12" fill="none"><path fill="#3E9CDC" d="M13.929 10.446a.275.275 0 0 1-.268.268H1.339a.275.275 0 0 1-.268-.268V4.018c.176.2.369.385.578.552 1.197.921 2.402 1.859 3.566 2.83.628.527 1.406 1.171 2.277 1.171h.016c.87 0 1.65-.644 2.277-1.171a114.857 114.857 0 0 1 3.566-2.83c.21-.167.402-.351.578-.552v6.428Zm0-8.797c0 .711-.687 1.64-1.23 2.068A520.088 520.088 0 0 0 9.341 6.37c-.444.36-1.248 1.13-1.834 1.13h-.016c-.586 0-1.39-.77-1.834-1.13a518.717 518.717 0 0 0-3.356-2.653c-.753-.595-1.23-1.423-1.23-2.378 0-.142.125-.268.267-.268h12.322c.318 0 .268.369.268.578ZM15 1.339C15 .603 14.397 0 13.66 0H1.34C.602 0 0 .603 0 1.34v9.106c0 .737.603 1.34 1.34 1.34h12.32c.737 0 1.34-.603 1.34-1.34V1.34Z"/></svg>