<svg xmlns="http://www.w3.org/2000/svg" width="55" height="56" fill="none"><path fill="#fff" d="M44.429 39.607a.661.661 0 0 1-.643.642H14.214a.661.661 0 0 1-.643-.642V24.178c.422.482.884.924 1.387 1.326 2.872 2.21 5.765 4.46 8.558 6.79 1.506 1.266 3.375 2.813 5.464 2.813h.04c2.09 0 3.958-1.547 5.464-2.813 2.793-2.33 5.686-4.58 8.558-6.79.503-.402.965-.844 1.387-1.326v15.429Zm0-21.114c0 1.707-1.648 3.937-2.954 4.962a1247.75 1247.75 0 0 0-8.055 6.368c-1.065.864-2.994 2.712-4.4 2.712h-.04c-1.406 0-3.335-1.848-4.4-2.712a1247.75 1247.75 0 0 0-8.055-6.368c-1.808-1.426-2.954-3.415-2.954-5.706 0-.341.302-.642.643-.642h29.572c.763 0 .643.884.643 1.386ZM47 17.749a3.224 3.224 0 0 0-3.214-3.214H14.214A3.224 3.224 0 0 0 11 17.75v21.858a3.224 3.224 0 0 0 3.214 3.214h29.572A3.224 3.224 0 0 0 47 39.607V17.749Z"/></svg>