<svg xmlns="http://www.w3.org/2000/svg" width="55" height="56" fill="none"><path fill="#fff" d="M23.929 32.535v-1.928H26.5V24.82h-.04c-.322.502-.623.723-1.105 1.145l-1.547-1.607 2.973-2.752h2.29v9h2.572v1.928h-7.714Zm10.285-5.143c0-3.656-2.21-8.357-6.428-8.357-4.219 0-6.429 4.701-6.429 8.357 0 3.657 2.21 8.357 6.429 8.357 4.218 0 6.428-4.7 6.428-8.357ZM44.5 32.535a5.153 5.153 0 0 0-5.143 5.143H16.214a5.153 5.153 0 0 0-5.143-5.143V22.25a5.153 5.153 0 0 0 5.143-5.142h23.143a5.153 5.153 0 0 0 5.143 5.142v10.286Zm2.571-16.714c0-.703-.582-1.286-1.285-1.286h-36c-.703 0-1.286.583-1.286 1.286v23.143c0 .703.583 1.285 1.286 1.285h36c.703 0 1.285-.582 1.285-1.285V15.82Z"/></svg>