<svg xmlns="http://www.w3.org/2000/svg" width="55" height="56" fill="none"><path fill="#fff" d="M37.787 35.965a2.59 2.59 0 0 1-2.572 2.572 2.59 2.59 0 0 1-2.571-2.572 2.59 2.59 0 0 1 2.571-2.571 2.59 2.59 0 0 1 2.572 2.571ZM22.358 20.537a2.59 2.59 0 0 1-2.571 2.571 2.59 2.59 0 0 1-2.572-2.571 2.59 2.59 0 0 1 2.572-2.572 2.59 2.59 0 0 1 2.571 2.572Zm20.571 15.428a7.716 7.716 0 0 0-7.714-7.714 7.716 7.716 0 0 0-7.714 7.714 7.716 7.716 0 0 0 7.714 7.714 7.716 7.716 0 0 0 7.714-7.714Zm-1.928-21.857c0-.703-.583-1.286-1.286-1.286h-3.214c-.402 0-.784.201-1.025.523L14.262 41.63c-.16.221-.261.482-.261.764 0 .703.582 1.285 1.286 1.285H18.5c.402 0 .783-.2 1.024-.522L40.74 14.871c.16-.22.26-.482.26-.763Zm-13.5 6.429a7.716 7.716 0 0 0-7.714-7.715 7.716 7.716 0 0 0-7.715 7.715 7.716 7.716 0 0 0 7.715 7.714 7.716 7.716 0 0 0 7.714-7.714Z"/></svg>