<svg xmlns="http://www.w3.org/2000/svg" width="20" height="20" fill="none"><path fill="#3E9CDC" d="M16.409 13.463c.06.387-.067.551-.195.551-.129 0-.314-.157-.521-.47-.207-.313-.278-.66-.178-.839a.287.287 0 0 1 .17-.126.298.298 0 0 1 .213.022c.34.124.474.629.51.862Zm-1.888.85c.41.335.534.733.318 1.013a.689.689 0 0 1-.55.238.999.999 0 0 1-.626-.219c-.371-.314-.48-.824-.238-1.114a.532.532 0 0 1 .435-.175c.245.008.479.099.66.257Zm-.684 3.23c1.762 0 3.674.585 5.791 2.399.211.18.493-.044.309-.27-2.08-2.54-4.008-3.024-5.922-3.432-2.346-.502-3.554-1.78-4.4-3.182-.167-.279-.243-.23-.257.13a7.655 7.655 0 0 0 .124 1.589h-.286a6.226 6.226 0 0 1-3.377-.991 5.927 5.927 0 0 1-2.239-2.639 5.701 5.701 0 0 1-.346-3.397 5.823 5.823 0 0 1 1.664-3.01A6.145 6.145 0 0 1 8.01 3.13a6.27 6.27 0 0 1 3.512.335A6.04 6.04 0 0 1 14.25 5.63a5.744 5.744 0 0 1 .986 3.95 9.38 9.38 0 0 0-1.93-.034c-.232.02-.198.129-.025.154 2.004.35 3.39 1.55 3.706 3.74a.053.053 0 0 0 .014.03.057.057 0 0 0 .063.014.055.055 0 0 0 .025-.021 8.658 8.658 0 0 0 1.24-5.609 8.78 8.78 0 0 0-2.554-5.175 9.31 9.31 0 0 0-5.29-2.591 9.46 9.46 0 0 0-5.825 1.07A9 9 0 0 0 .72 5.443a8.625 8.625 0 0 0-.416 5.72 8.883 8.883 0 0 0 3.28 4.779 9.399 9.399 0 0 0 5.612 1.849c1.343.003 2.68-.25 4.64-.25v.002Z"/></svg>