<svg xmlns="http://www.w3.org/2000/svg" width="19" height="18" fill="none"><path fill="#3E9CDC" d="M8.995 0c1.41 0 2.752.323 3.956.901.19.085.38.187.567.29l-.825.73L11.455.647l-2.132 1.87-1.256-1.343L4.145 4.66l2.51 2.737-.98.85 2.478 2.738-.98.85 3.543 3.893 2.097-1.904 1.824 2.04c-.361.273-.757.546-1.187.783a9.07 9.07 0 0 1-4.437 1.156C4.04 17.802 0 13.807 0 8.893-.017 4.013 4.025 0 8.995 0ZM7.344 8.349l2.15-1.905L11.42 8.57l-2.15 1.904-1.927-2.125Zm1.531 3.672 2.133-1.92 1.943 2.124-2.15 1.905-1.926-2.109ZM5.814 4.727l2.15-1.904L9.89 4.948 7.74 6.852 5.814 4.727Zm3.938-1.02 1.6-1.429 1.445 1.582-1.6 1.445-1.445-1.598Zm2.855 6.546 1.6-1.428 1.445 1.597-1.6 1.43-1.445-1.6Zm1.41 3.214 1.6-1.429 1.444 1.582-1.599 1.444-1.444-1.597Zm.654-7.346 1.067-.952.963 1.054-1.067.952-.963-1.054Zm-1.376-3.146 1.067-.968.963 1.07-1.067.953-.963-1.055Zm2.735 6.292 1.066-.952.98 1.054-1.083.952-.963-1.054Zm-4.799-2.364 1.6-1.428 1.445 1.581-1.6 1.429-1.445-1.582Z"/></svg>