<svg xmlns="http://www.w3.org/2000/svg" width="14" height="18" fill="none"><path fill="#3E9CDC" fill-rule="evenodd" d="M0 8.693c0-.984.083-1.608 2.138-3.13C3.84 4.304 9.293 0 9.293 0v7.185h4.148v10.34H1.296A1.294 1.294 0 0 1 0 16.24V8.693Z" clip-rule="evenodd"/><path fill="#000" fill-opacity=".2" fill-rule="evenodd" d="M9.294 7.186v4.163l-7.621 5.148 9.635-3.109V7.186H9.294Z" clip-rule="evenodd"/><path fill="#231F20" fill-rule="evenodd" d="M5.811 6.969c.446-.527 1.097-.713 1.454-.415.357.297.286.965-.16 1.492-.445.526-1.096.712-1.454.415-.357-.298-.285-.966.16-1.492Z" clip-rule="evenodd"/></svg>