<svg xmlns="http://www.w3.org/2000/svg" width="11" height="14" fill="none"><path fill="#3E9CDC" d="M10.468 9.08c0 .65-.123 1.22-.37 1.713a3.5 3.5 0 0 1-.993 1.222 4.595 4.595 0 0 1-1.626.826c-.585.164-1.333.246-2.24.246H0V0h4.623c.961 0 1.688.038 2.18.114.498.07.964.223 1.397.457.469.252.818.59 1.046 1.011.234.422.352.908.352 1.459a3.07 3.07 0 0 1-.484 1.705 2.793 2.793 0 0 1-1.318 1.099v.07c.808.17 1.456.519 1.942 1.046.487.521.73 1.227.73 2.118ZM6.258 3.7c0-.21-.056-.428-.167-.65a.961.961 0 0 0-.501-.484 2.042 2.042 0 0 0-.774-.149 36.06 36.06 0 0 0-1.318-.018H3.27v2.769h.413c.562 0 .955-.006 1.177-.018.229-.011.463-.073.703-.184.264-.123.446-.293.545-.51.1-.217.15-.469.15-.756Zm.826 5.318c0-.405-.082-.721-.246-.95-.164-.228-.41-.401-.738-.518-.2-.076-.475-.117-.827-.123a43.438 43.438 0 0 0-1.397-.018H3.27v3.279h.175c.856 0 1.448-.006 1.776-.018.328-.012.662-.09 1.002-.237.298-.13.515-.317.65-.563.14-.252.211-.536.211-.852Z"/></svg>